HIERARCHY
ROOT RootJoint
{
    OFFSET   0.000000   0.000000   0.000000
    CHANNELS 6 Xposition Yposition Zposition Xrotation Yrotation Zrotation
    JOINT pelvis_lowerback
    {
        OFFSET   0.000000   0.093605   0.000000
        CHANNELS 3 Xrotation Yrotation Zrotation
        JOINT lowerback_torso
        {
            OFFSET   0.000000   0.100000   0.000000
            CHANNELS 3 Xrotation Yrotation Zrotation
            JOINT torso_head
            {
                OFFSET   0.000000   0.282350   0.000000
                CHANNELS 3 Xrotation Yrotation Zrotation
                End Site
                {
                    OFFSET   0.000000   0.192650   0.000000
                }
            }
            JOINT rTorso_Clavicle
            {
                OFFSET  -0.001000   0.157500   0.000000
                CHANNELS 3 Xrotation Yrotation Zrotation
                JOINT rShoulder
                {
                    OFFSET  -0.117647   0.000000   0.000000
                    CHANNELS 3 Xrotation Yrotation Zrotation
                    JOINT rElbow
                    {
                        OFFSET  -0.245000   0.000000   0.000000
                        CHANNELS 3 Xrotation Yrotation Zrotation
                        JOINT rWrist
                        {
                            OFFSET  -0.240000   0.000000   0.000000
                            CHANNELS 3 Xrotation Yrotation Zrotation
                            End Site
                            {
                                OFFSET  -0.116353  -0.002500   0.000000
                            }
                        }
                    }
                }
            }
            JOINT lTorso_Clavicle
            {
                OFFSET   0.001000   0.157500   0.000000
                CHANNELS 3 Xrotation Yrotation Zrotation
                JOINT lShoulder
                {
                    OFFSET   0.117647   0.000000   0.000000
                    CHANNELS 3 Xrotation Yrotation Zrotation
                    JOINT lElbow
                    {
                        OFFSET   0.245000   0.000000   0.000000
                        CHANNELS 3 Xrotation Yrotation Zrotation
                        JOINT lWrist
                        {
                            OFFSET   0.240000   0.000000   0.000000
                            CHANNELS 3 Xrotation Yrotation Zrotation
                            End Site
                            {
                                OFFSET   0.116353  -0.002500   0.000000
                            }
                        }
                    }
                }
            }
        }
    }
    JOINT rHip
    {
        OFFSET  -0.100000  -0.051395   0.000000
        CHANNELS 3 Xrotation Yrotation Zrotation
        JOINT rKnee
        {
            OFFSET   0.000000  -0.410000   0.000000
            CHANNELS 3 Xrotation Yrotation Zrotation
            JOINT rAnkle
            {
                OFFSET   0.000000  -0.390000   0.000000
                CHANNELS 3 Xrotation Yrotation Zrotation
                JOINT rToeJoint
                {
                    OFFSET   0.000000  -0.050000   0.130000
                    CHANNELS 3 Xrotation Yrotation Zrotation
                    End Site
                    {
                        OFFSET  -0.010000   0.002000   0.060000
                    }
                }
            }
        }
    }
    JOINT lHip
    {
        OFFSET   0.100000  -0.051395   0.000000
        CHANNELS 3 Xrotation Yrotation Zrotation
        JOINT lKnee
        {
            OFFSET   0.000000  -0.410000   0.000000
            CHANNELS 3 Xrotation Yrotation Zrotation
            JOINT lAnkle
            {
                OFFSET   0.000000  -0.390000   0.000000
                CHANNELS 3 Xrotation Yrotation Zrotation
                JOINT lToeJoint
                {
                    OFFSET   0.000000  -0.050000   0.130000
                    CHANNELS 3 Xrotation Yrotation Zrotation
                    End Site
                    {
                        OFFSET   0.010000   0.002000   0.060000
                    }
                }
            }
        }
    }
}
MOTION
Frames: 8
Frame Time:   0.008333
 -2.294245   0.898176   3.952188  12.692555 -11.083518   5.065193   9.151618  -5.517189  -0.433533   2.545532  -0.605186   2.164164  -0.253886  -0.243988   2.475424   3.626652 -27.521920   4.638515  24.861478  -3.398145  47.300319 179.994565  66.261816 -179.998631  -5.951071   5.690080  22.339031   6.714262  24.393041  -1.996441  28.563212  -1.559153 -41.034954 -179.997182 -62.767140 -179.998368  -4.107998  -9.185816 -20.001906 -30.448167  -0.004636 -11.160978  30.166772   0.000038   0.000361  -7.498497   0.361132   4.508938  -7.090199  -0.000086   0.000064 -18.262869   8.267487   0.088260  22.795475   0.000259   0.000603 -17.230114   9.053835   5.565862   0.843268   0.000002  -0.000005
 -2.294348   0.898422   3.952477  12.802102 -11.121873   5.108247   9.057223  -5.476842  -0.444301   2.509557  -0.571443   2.158433  -0.317703  -0.241783   2.486356   3.694927 -27.530424   4.822784  24.888402  -3.385238  47.437421 179.995669  66.370625 -179.999215  -5.916315   5.633563  22.346306   6.759457  24.443679  -2.192876  28.500869  -1.492234 -41.092341 -179.997330 -62.647061 -179.998524  -4.098891  -9.181463 -20.116793 -30.457125   0.031773 -11.157923  29.995255   0.000025   0.000287  -7.462754   0.403190   4.512525  -7.057517  -0.000071   0.000065 -18.232645   8.274007   0.060747  22.565697   0.000236   0.000570 -17.127391   9.099951   5.538636   0.839292   0.000000  -0.000004
 -2.294455   0.898677   3.952703  12.907599 -11.149270   5.146190   8.971199  -5.437274  -0.455939   2.482837  -0.541139   2.152916  -0.378559  -0.239429   2.495836   3.760245 -27.521433   4.976692  24.915359  -3.366337  47.552434 179.996630  66.466791 -179.999668  -5.889271   5.592349  22.419819   6.791564  24.470108  -2.352442  28.434696  -1.437597 -41.129667 -179.997523 -62.524701 -179.998674  -4.089236  -9.178320 -20.254203 -30.463262   0.063695 -11.152496  29.821104   0.000014   0.000215  -7.420113   0.436455   4.510508  -7.025270  -0.000057   0.000065 -18.205127   8.275085   0.036300  22.335163   0.000215   0.000530 -17.019167   9.139260   5.516154   0.836243  -0.000000  -0.000003
 -2.294568   0.898925   3.952882  13.009810 -11.169927   5.181041   8.894313  -5.400556  -0.468959   2.461359  -0.513925   2.146217  -0.435645  -0.237039   2.504286   3.818654 -27.507459   5.109911  24.938376  -3.347605  47.653551 179.997409  66.554766 -179.999990  -5.866327   5.561438  22.505703   6.816483  24.487671  -2.489841  28.368886  -1.387716 -41.157794 -179.997741 -62.408290 -179.998820  -4.079382  -9.176434 -20.384304 -30.470255   0.093171 -11.146154  29.651149   0.000006   0.000151  -7.375886   0.466178   4.506721  -6.992485  -0.000046   0.000065 -18.182891   8.273335   0.014553  22.112328   0.000197   0.000487 -16.911163   9.173838   5.495593   0.833550  -0.000001  -0.000002
 -2.294687   0.899162   3.953028  13.108208 -11.185811   5.213378   8.826011  -5.366644  -0.483315   2.444278  -0.489197   2.137984  -0.488750  -0.234767   2.511876   3.871410 -27.492329   5.228400  24.958344  -3.330247  47.744667 179.998029  66.636067 179.999790  -5.845866   5.536551  22.588100   6.837547  24.501309  -2.612615  28.305738  -1.341054 -41.180882 -179.997967 -62.299135 -179.998963  -4.069681  -9.175487 -20.504543 -30.478318   0.121170 -11.139274  29.488172   0.000000   0.000096  -7.332500   0.493734   4.502473  -6.959206  -0.000037   0.000066 -18.165468   8.269723  -0.004734  21.900173   0.000180   0.000443 -16.806078   9.204780   5.476578   0.831160  -0.000001  -0.000002
 -2.294810   0.899384   3.953149  13.202517 -11.197925   5.243445   8.765416  -5.335229  -0.498805   2.431035  -0.466513   2.128271  -0.537981  -0.232636   2.518704   3.919718 -27.477451   5.335539  24.976163  -3.314458  47.827839 179.998519  66.711560 179.999645  -5.826966   5.515101  22.664591   6.856333  24.512899  -2.724636  28.246150  -1.297237 -41.200886 -179.998188 -62.197227 -179.999102  -4.060269  -9.175223 -20.617238 -30.487236   0.147939 -11.132034  29.333217  -0.000004   0.000049  -7.291037   0.519541   4.498270  -6.925749  -0.000030   0.000067 -18.152099   8.264696  -0.021767  21.699491   0.000165   0.000399 -16.705081   9.232682   5.458945   0.829059  -0.000001  -0.000001
 -2.294938   0.899593   3.953251  13.292704 -11.206902   5.271409   8.711629  -5.306022  -0.515198   2.421069  -0.445567   2.117273  -0.583567  -0.230642   2.524850   3.964348 -27.463342   5.433334  24.992383  -3.300167  47.904280 179.998905  66.781830 179.999554  -5.809128   5.495696  22.735642   6.873583  24.523240  -2.828017  28.190365  -1.256102 -41.218783 -179.998398 -62.102238 -179.999232  -4.051188  -9.175467 -20.724320 -30.496779   0.173521 -11.124536  29.186533  -0.000007   0.000012  -7.251978   0.543754   4.494325  -6.892430  -0.000024   0.000068 -18.142113   8.258533  -0.036736  21.510191   0.000152   0.000356 -16.608652   9.257934   5.442577   0.827237  -0.000001  -0.000001
 -2.295068   0.899836   3.953318  13.324201 -11.231643   5.286190   8.692228  -5.257119  -0.539637   2.459528  -0.421319   2.108339  -0.611997  -0.252059   2.526349   4.020269 -27.342937   5.493135  25.100950  -3.240701  47.894598 179.999125  66.782040 179.999642  -5.803404   5.447121  22.770029   6.879639  24.438380  -2.897886  28.176352  -1.260715 -41.108946 -179.998990 -61.965659 -179.999606  -4.066009  -9.167465 -20.822939 -30.449006   0.205855 -11.105252  29.041845  -0.000003  -0.000020  -7.201807   0.547548   4.470448  -6.872712  -0.000017   0.000060 -18.064443   8.254574  -0.049409  21.306149   0.000145   0.000338 -16.509277   9.290302   5.439040   0.828029  -0.000001  -0.000001
